<?xml version="1.0" encoding="utf-8"?>
<!-- Generator: Adobe Illustrator 21.0.2, SVG Export Plug-In . SVG Version: 6.00 Build 0)  -->
<svg version="1.1" id="Twitter" xmlns="http://www.w3.org/2000/svg" xmlns:xlink="http://www.w3.org/1999/xlink" x="0px" y="0px"
	 viewBox="0 0 30 30" enable-background="new 0 0 30 30" xml:space="preserve">
<g>
	<path id="Brid" d="M30,6.7c-1.1,0.5-2.8,1.1-4,1.3c1.3-0.8,2.5-2.6,3-4c-1,0.6-2.1,1.4-3.2,1.8L25,5c-1.1-1.2-2.2-2-4-2
		c-3.4,0-6,2.6-6,6c0,0.4,0,0.7,0.1,1L15,10C9,10,5,8.7,2,5C1.5,5.9,1,6.9,1,8c0,2.1,1.3,3.9,3,5c-1,0-2.2-0.5-3-1c0,3,4.2,6.4,7,7
		c-1,1-4.6,0.1-5,0c0.8,2.4,3.3,3.9,6,4c-2.1,1.6-4.6,2.5-7.5,2.5c-0.5,0-1,0-1.5-0.1C2.7,27.2,6.5,28,10,28c11.3,0,17-8.9,17-17
		c0-0.3,0-0.7,0-1C28.2,9.1,29.2,7.9,30,6.7z"/>
</g>
</svg>
