<?xml version="1.0" encoding="utf-8"?>
<!-- Generator: Adobe Illustrator 21.0.2, SVG Export Plug-In . SVG Version: 6.00 Build 0)  -->
<svg version="1.1" id="Social_Icons" xmlns="http://www.w3.org/2000/svg" xmlns:xlink="http://www.w3.org/1999/xlink" x="0px"
	 y="0px" viewBox="0 0 128 93.8" enable-background="new 0 0 128 93.8" xml:space="preserve">
<rect y="-17.3" fill="none" width="128" height="128"/>
<path id="Youtube" fill="#CE1312" d="M126.7,21c0,0-1.3-8.9-5.1-12.8C116.8,3,111.3,3,108.8,2.7C90.9,1.4,64,1.4,64,1.4l0,0
	c0,0-26.9,0-44.8,1.3C16.7,3,11.2,3,6.4,8.2C2.5,12.1,1.3,21,1.3,21S0,31.4,0,41.8v9.8C0,62,1.3,72.5,1.3,72.5s1.2,8.9,5.1,12.8
	c4.9,5.1,11.3,5,14.1,5.5c10.2,1,43.5,1.3,43.5,1.3s26.9,0,44.8-1.3c2.5-0.3,8-0.3,12.8-5.5c3.8-3.9,5.1-12.8,5.1-12.8
	s1.3-10.4,1.3-20.9v-9.8C128,31.4,126.7,21,126.7,21z M50.8,63.5V27.3l34.6,18.2L50.8,63.5z"/>
</svg>
