<?xml version="1.0" encoding="UTF-8"?><!DOCTYPE svg PUBLIC "-//W3C//DTD SVG 1.1//EN" "http://www.w3.org/Graphics/SVG/1.1/DTD/svg11.dtd"><svg xmlns="http://www.w3.org/2000/svg"><symbol id="icon-facebook" viewBox="0 0 10 19">
    <title>
        facebook
    </title>
    <path d="M9.766.157v2.946H8.014c-.64 0-1.071.134-1.295.402-.223.268-.335.67-.335 1.205v2.11h3.27l-.435 3.303H6.384v8.471H2.97v-8.47H.123V6.82H2.97V4.387c0-1.384.387-2.457 1.161-3.22C4.904.404 5.934.023 7.222.023c1.093 0 1.941.045 2.544.134z" fill-rule="evenodd"/>
</symbol><symbol id="icon-fb" viewBox="0 0 14 27">
    <path d="M9 27V15h4l1-5H9V8c0-2 1-3 3-3h2V0h-4C6.3 0 4 2.9 4 7v3H0v5h4v12h5z"/>
</symbol><symbol id="icon-insta" viewBox="0 0 51.4 51.5">
    <path d="M25.6 13c-7 0-12.8 5.7-12.8 12.8s5.7 12.8 12.8 12.8 12.8-5.8 12.8-12.8S32.6 13 25.6 13zm0 21c-4.5 0-8.2-3.7-8.2-8.2s3.7-8.2 8.2-8.2 8.2 3.7 8.2 8.2-3.7 8.2-8.2 8.2z"/>
    <circle cx="38.9" cy="12.6" r="2.9"/>
    <path d="M46.4 5.1C43.8 2.4 40.1 1 35.9 1H15.3C6.6 1 .8 6.9.8 15.5V36c0 4.3 1.4 8 4.2 10.7 2.7 2.6 6.3 3.9 10.4 3.9h20.4c4.3 0 7.9-1.4 10.5-3.9 2.7-2.6 4.1-6.3 4.1-10.6V15.5c0-4.1-1.4-7.7-4-10.4zM46 36.2c0 3.1-1.1 5.6-2.9 7.3S38.8 46 35.8 46H15.4c-3 0-5.5-.9-7.3-2.6-1.8-1.8-2.7-4.3-2.7-7.4V15.5c0-3 .9-5.5 2.7-7.3 1.7-1.7 4.3-2.6 7.3-2.6H36c3 0 5.5.9 7.3 2.7 1.7 1.8 2.7 4.3 2.7 7.2v20.7z"/>
</symbol><symbol id="icon-play" viewBox="0 0 262 324.3">
    <path d="M19.5 31.9L229.3 163 19.5 294.1V31.9M3.5 3v320l256-160L3.5 3z"/>
</symbol><symbol id="icon-tw" viewBox="0 0 30 30">
    <path d="M30 6.7c-1.1.5-2.8 1.1-4 1.3 1.3-.8 2.5-2.6 3-4-1 .6-2.1 1.4-3.2 1.8L25 5c-1.1-1.2-2.2-2-4-2-3.4 0-6 2.6-6 6 0 .4 0 .7.1 1H15C9 10 5 8.7 2 5c-.5.9-1 1.9-1 3 0 2.1 1.3 3.9 3 5-1 0-2.2-.5-3-1 0 3 4.2 6.4 7 7-1 1-4.6.1-5 0 .8 2.4 3.3 3.9 6 4-2.1 1.6-4.6 2.5-7.5 2.5-.5 0-1 0-1.5-.1C2.7 27.2 6.5 28 10 28c11.3 0 17-8.9 17-17v-1c1.2-.9 2.2-2.1 3-3.3z"/>
</symbol><symbol id="icon-you" viewBox="0 0 128 93.8">
    <path d="M0-17.3h128v128H0z"/>
    <path d="M126.7 21s-1.3-8.9-5.1-12.8C116.8 3 111.3 3 108.8 2.7 90.9 1.4 64 1.4 64 1.4s-26.9 0-44.8 1.3c-2.5.3-8 .3-12.8 5.5C2.5 12.1 1.3 21 1.3 21S0 31.4 0 41.8v9.8C0 62 1.3 72.5 1.3 72.5s1.2 8.9 5.1 12.8c4.9 5.1 11.3 5 14.1 5.5 10.2 1 43.5 1.3 43.5 1.3s26.9 0 44.8-1.3c2.5-.3 8-.3 12.8-5.5 3.8-3.9 5.1-12.8 5.1-12.8s1.3-10.4 1.3-20.9v-9.8c0-10.4-1.3-20.8-1.3-20.8zM50.8 63.5V27.3l34.6 18.2-34.6 18z"/>
</symbol><symbol id="icon-you1" viewBox="0 0 512 366">
    <path d="M255.7 357.3c-53.3.3-106.6-.4-159.8-3.3-17.3-1-34.6-2.5-50.3-11-10.5-5.7-18.6-13.6-23.7-24.8C13.3 299.6 10.6 280 9 260c-3.4-41.3-3.6-82.6-1.8-123.8.9-21.9 1.6-44 6.8-65.5 2-8.4 4.9-16.6 8.8-24.4C32 28 48 18.9 67.3 15.1c16.2-3.2 32.8-3.1 49.3-3.8C172.5 9 228.5 7.8 284.5 8.4c43.1.5 86.3 1.6 129.4 3.8 13.3.7 26.7.9 39.4 5.6 17.2 6.4 30 17.2 36.9 34.7 6.7 16.8 9.3 34.2 10.7 52.1 3.9 48.6 4 97.2.8 145.8-1.1 16.4-2.2 32.8-6.5 48.9-9.7 37-32.8 51.5-66.7 53.8-36.2 2.4-72.5 3.7-108.8 4.2-21.3.2-42.7 0-64 0zM203.2 255c48.4-26.5 96.2-52.7 144.8-79.3-48.7-26.7-96.5-52.8-144.8-79.3V255z"/>
    <path d="M203.2 255V96.5c48.3 26.4 96.1 52.6 144.8 79.3-48.6 26.6-96.4 52.7-144.8 79.2z"/>
</symbol><symbol id="icon-you2" viewBox="0 0 320 384">
    <path d="M309.2 168.9L30.8 3.2C27.4 1.2 23.9 0 19.9 0 9 0 .1 9 .1 20H0v344h.1c0 11 8.9 20 19.8 20 4.1 0 7.5-1.4 11.2-3.4l278.1-165.5c6.6-5.5 10.8-13.8 10.8-23.1s-4.2-17.5-10.8-23.1z"/>
</symbol></svg>